v 0.000000 0.000000 0.000000
v 0.000000 0.020000 0.000000
v 0.000000 0.019616 0.003902
v 0.000000 0.018478 0.007654
v 0.000000 0.016629 0.011111
v 0.000000 0.014142 0.014142
v 0.000000 0.011111 0.016629
v 0.000000 0.007654 0.018478
v 0.000000 0.003902 0.019616
v 0.000000 0.000000 0.020000
v 0.000000 -0.003902 0.019616
v 0.000000 -0.007654 0.018478
v 0.000000 -0.011111 0.016629
v 0.000000 -0.014142 0.014142
v 0.000000 -0.016629 0.011111
v 0.000000 -0.018478 0.007654
v 0.000000 -0.019616 0.003902
v 0.000000 -0.020000 0.000000
v 0.000000 -0.019616 -0.003902
v 0.000000 -0.018478 -0.007654
v 0.000000 -0.016629 -0.011111
v 0.000000 -0.014142 -0.014142
v 0.000000 -0.011111 -0.016629
v 0.000000 -0.007654 -0.018478
v 0.000000 -0.003902 -0.019616
v 0.000000 -0.000000 -0.020000
v 0.000000 0.003902 -0.019616
v 0.000000 0.007654 -0.018478
v 0.000000 0.011111 -0.016629
v 0.000000 0.014142 -0.014142
v 0.000000 0.016629 -0.011111
v 0.000000 0.018478 -0.007654
v 0.000000 0.019616 -0.003902
v 0.012000 0.020000 0.000000
v 0.012000 0.019616 0.003902
v 0.012000 0.018478 0.007654
v 0.012000 0.016629 0.011111
v 0.012000 0.014142 0.014142
v 0.012000 0.011111 0.016629
v 0.012000 0.007654 0.018478
v 0.012000 0.003902 0.019616
v 0.012000 0.000000 0.020000
v 0.012000 -0.003902 0.019616
v 0.012000 -0.007654 0.018478
v 0.012000 -0.011111 0.016629
v 0.012000 -0.014142 0.014142
v 0.012000 -0.016629 0.011111
v 0.012000 -0.018478 0.007654
v 0.012000 -0.019616 0.003902
v 0.012000 -0.020000 0.000000
v 0.012000 -0.019616 -0.003902
v 0.012000 -0.018478 -0.007654
v 0.012000 -0.016629 -0.011111
v 0.012000 -0.014142 -0.014142
v 0.012000 -0.011111 -0.016629
v 0.012000 -0.007654 -0.018478
v 0.012000 -0.003902 -0.019616
v 0.012000 -0.000000 -0.020000
v 0.012000 0.003902 -0.019616
v 0.012000 0.007654 -0.018478
v 0.012000 0.011111 -0.016629
v 0.012000 0.014142 -0.014142
v 0.012000 0.016629 -0.011111
v 0.012000 0.018478 -0.007654
v 0.012000 0.019616 -0.003902
v 0.022000 0.012500 0.000000
v 0.022000 0.012260 0.002439
v 0.022000 0.011548 0.004784
v 0.022000 0.010393 0.006945
v 0.022000 0.008839 0.008839
v 0.022000 0.006945 0.010393
v 0.022000 0.004784 0.011548
v 0.022000 0.002439 0.012260
v 0.022000 0.000000 0.012500
v 0.022000 -0.002439 0.012260
v 0.022000 -0.004784 0.011548
v 0.022000 -0.006945 0.010393
v 0.022000 -0.008839 0.008839
v 0.022000 -0.010393 0.006945
v 0.022000 -0.011548 0.004784
v 0.022000 -0.012260 0.002439
v 0.022000 -0.012500 0.000000
v 0.022000 -0.012260 -0.002439
v 0.022000 -0.011548 -0.004784
v 0.022000 -0.010393 -0.006945
v 0.022000 -0.008839 -0.008839
v 0.022000 -0.006945 -0.010393
v 0.022000 -0.004784 -0.011548
v 0.022000 -0.002439 -0.012260
v 0.022000 -0.000000 -0.012500
v 0.022000 0.002439 -0.012260
v 0.022000 0.004784 -0.011548
v 0.022000 0.006945 -0.010393
v 0.022000 0.008839 -0.008839
v 0.022000 0.010393 -0.006945
v 0.022000 0.011548 -0.004784
v 0.022000 0.012260 -0.002439
v 0.300000 0.013500 0.000000
v 0.300000 0.013241 0.002634
v 0.300000 0.012472 0.005166
v 0.300000 0.011225 0.007500
v 0.300000 0.009546 0.009546
v 0.300000 0.007500 0.011225
v 0.300000 0.005166 0.012472
v 0.300000 0.002634 0.013241
v 0.300000 0.000000 0.013500
v 0.300000 -0.002634 0.013241
v 0.300000 -0.005166 0.012472
v 0.300000 -0.007500 0.011225
v 0.300000 -0.009546 0.009546
v 0.300000 -0.011225 0.007500
v 0.300000 -0.012472 0.005166
v 0.300000 -0.013241 0.002634
v 0.300000 -0.013500 0.000000
v 0.300000 -0.013241 -0.002634
v 0.300000 -0.012472 -0.005166
v 0.300000 -0.011225 -0.007500
v 0.300000 -0.009546 -0.009546
v 0.300000 -0.007500 -0.011225
v 0.300000 -0.005166 -0.012472
v 0.300000 -0.002634 -0.013241
v 0.300000 -0.000000 -0.013500
v 0.300000 0.002634 -0.013241
v 0.300000 0.005166 -0.012472
v 0.300000 0.007500 -0.011225
v 0.300000 0.009546 -0.009546
v 0.300000 0.011225 -0.007500
v 0.300000 0.012472 -0.005166
v 0.300000 0.013241 -0.002634
v 0.450000 0.021500 0.000000
v 0.450000 0.021087 0.004194
v 0.450000 0.019863 0.008228
v 0.450000 0.017877 0.011945
v 0.450000 0.015203 0.015203
v 0.450000 0.011945 0.017877
v 0.450000 0.008228 0.019863
v 0.450000 0.004194 0.021087
v 0.450000 0.000000 0.021500
v 0.450000 -0.004194 0.021087
v 0.450000 -0.008228 0.019863
v 0.450000 -0.011945 0.017877
v 0.450000 -0.015203 0.015203
v 0.450000 -0.017877 0.011945
v 0.450000 -0.019863 0.008228
v 0.450000 -0.021087 0.004194
v 0.450000 -0.021500 0.000000
v 0.450000 -0.021087 -0.004194
v 0.450000 -0.019863 -0.008228
v 0.450000 -0.017877 -0.011945
v 0.450000 -0.015203 -0.015203
v 0.450000 -0.011945 -0.017877
v 0.450000 -0.008228 -0.019863
v 0.450000 -0.004194 -0.021087
v 0.450000 -0.000000 -0.021500
v 0.450000 0.004194 -0.021087
v 0.450000 0.008228 -0.019863
v 0.450000 0.011945 -0.017877
v 0.450000 0.015203 -0.015203
v 0.450000 0.017877 -0.011945
v 0.450000 0.019863 -0.008228
v 0.450000 0.021087 -0.004194
v 0.600000 0.031800 0.000000
v 0.600000 0.031189 0.006204
v 0.600000 0.029379 0.012169
v 0.600000 0.026441 0.017667
v 0.600000 0.022486 0.022486
v 0.600000 0.017667 0.026441
v 0.600000 0.012169 0.029379
v 0.600000 0.006204 0.031189
v 0.600000 0.000000 0.031800
v 0.600000 -0.006204 0.031189
v 0.600000 -0.012169 0.029379
v 0.600000 -0.017667 0.026441
v 0.600000 -0.022486 0.022486
v 0.600000 -0.026441 0.017667
v 0.600000 -0.029379 0.012169
v 0.600000 -0.031189 0.006204
v 0.600000 -0.031800 0.000000
v 0.600000 -0.031189 -0.006204
v 0.600000 -0.029379 -0.012169
v 0.600000 -0.026441 -0.017667
v 0.600000 -0.022486 -0.022486
v 0.600000 -0.017667 -0.026441
v 0.600000 -0.012169 -0.029379
v 0.600000 -0.006204 -0.031189
v 0.600000 -0.000000 -0.031800
v 0.600000 0.006204 -0.031189
v 0.600000 0.012169 -0.029379
v 0.600000 0.017667 -0.026441
v 0.600000 0.022486 -0.022486
v 0.600000 0.026441 -0.017667
v 0.600000 0.029379 -0.012169
v 0.600000 0.031189 -0.006204
v 0.640000 0.032400 0.000000
v 0.640000 0.031777 0.006321
v 0.640000 0.029934 0.012399
v 0.640000 0.026940 0.018000
v 0.640000 0.022910 0.022910
v 0.640000 0.018000 0.026940
v 0.640000 0.012399 0.029934
v 0.640000 0.006321 0.031777
v 0.640000 0.000000 0.032400
v 0.640000 -0.006321 0.031777
v 0.640000 -0.012399 0.029934
v 0.640000 -0.018000 0.026940
v 0.640000 -0.022910 0.022910
v 0.640000 -0.026940 0.018000
v 0.640000 -0.029934 0.012399
v 0.640000 -0.031777 0.006321
v 0.640000 -0.032400 0.000000
v 0.640000 -0.031777 -0.006321
v 0.640000 -0.029934 -0.012399
v 0.640000 -0.026940 -0.018000
v 0.640000 -0.022910 -0.022910
v 0.640000 -0.018000 -0.026940
v 0.640000 -0.012399 -0.029934
v 0.640000 -0.006321 -0.031777
v 0.640000 -0.000000 -0.032400
v 0.640000 0.006321 -0.031777
v 0.640000 0.012399 -0.029934
v 0.640000 0.018000 -0.026940
v 0.640000 0.022910 -0.022910
v 0.640000 0.026940 -0.018000
v 0.640000 0.029934 -0.012399
v 0.640000 0.031777 -0.006321
v 0.840000 0.032400 0.000000
v 0.840000 0.031777 0.006321
v 0.840000 0.029934 0.012399
v 0.840000 0.026940 0.018000
v 0.840000 0.022910 0.022910
v 0.840000 0.018000 0.026940
v 0.840000 0.012399 0.029934
v 0.840000 0.006321 0.031777
v 0.840000 0.000000 0.032400
v 0.840000 -0.006321 0.031777
v 0.840000 -0.012399 0.029934
v 0.840000 -0.018000 0.026940
v 0.840000 -0.022910 0.022910
v 0.840000 -0.026940 0.018000
v 0.840000 -0.029934 0.012399
v 0.840000 -0.031777 0.006321
v 0.840000 -0.032400 0.000000
v 0.840000 -0.031777 -0.006321
v 0.840000 -0.029934 -0.012399
v 0.840000 -0.026940 -0.018000
v 0.840000 -0.022910 -0.022910
v 0.840000 -0.018000 -0.026940
v 0.840000 -0.012399 -0.029934
v 0.840000 -0.006321 -0.031777
v 0.840000 -0.000000 -0.032400
v 0.840000 0.006321 -0.031777
v 0.840000 0.012399 -0.029934
v 0.840000 0.018000 -0.026940
v 0.840000 0.022910 -0.022910
v 0.840000 0.026940 -0.018000
v 0.840000 0.029934 -0.012399
v 0.840000 0.031777 -0.006321
v 0.858000 0.029000 0.000000
v 0.858000 0.028443 0.005658
v 0.858000 0.026793 0.011098
v 0.858000 0.024113 0.016112
v 0.858000 0.020506 0.020506
v 0.858000 0.016112 0.024113
v 0.858000 0.011098 0.026793
v 0.858000 0.005658 0.028443
v 0.858000 0.000000 0.029000
v 0.858000 -0.005658 0.028443
v 0.858000 -0.011098 0.026793
v 0.858000 -0.016112 0.024113
v 0.858000 -0.020506 0.020506
v 0.858000 -0.024113 0.016112
v 0.858000 -0.026793 0.011098
v 0.858000 -0.028443 0.005658
v 0.858000 -0.029000 0.000000
v 0.858000 -0.028443 -0.005658
v 0.858000 -0.026793 -0.011098
v 0.858000 -0.024113 -0.016112
v 0.858000 -0.020506 -0.020506
v 0.858000 -0.016112 -0.024113
v 0.858000 -0.011098 -0.026793
v 0.858000 -0.005658 -0.028443
v 0.858000 -0.000000 -0.029000
v 0.858000 0.005658 -0.028443
v 0.858000 0.011098 -0.026793
v 0.858000 0.016112 -0.024113
v 0.858000 0.020506 -0.020506
v 0.858000 0.024113 -0.016112
v 0.858000 0.026793 -0.011098
v 0.858000 0.028443 -0.005658
v 0.863600 0.024000 0.000000
v 0.863600 0.023539 0.004682
v 0.863600 0.022173 0.009184
v 0.863600 0.019955 0.013334
v 0.863600 0.016971 0.016971
v 0.863600 0.013334 0.019955
v 0.863600 0.009184 0.022173
v 0.863600 0.004682 0.023539
v 0.863600 0.000000 0.024000
v 0.863600 -0.004682 0.023539
v 0.863600 -0.009184 0.022173
v 0.863600 -0.013334 0.019955
v 0.863600 -0.016971 0.016971
v 0.863600 -0.019955 0.013334
v 0.863600 -0.022173 0.009184
v 0.863600 -0.023539 0.004682
v 0.863600 -0.024000 0.000000
v 0.863600 -0.023539 -0.004682
v 0.863600 -0.022173 -0.009184
v 0.863600 -0.019955 -0.013334
v 0.863600 -0.016971 -0.016971
v 0.863600 -0.013334 -0.019955
v 0.863600 -0.009184 -0.022173
v 0.863600 -0.004682 -0.023539
v 0.863600 -0.000000 -0.024000
v 0.863600 0.004682 -0.023539
v 0.863600 0.009184 -0.022173
v 0.863600 0.013334 -0.019955
v 0.863600 0.016971 -0.016971
v 0.863600 0.019955 -0.013334
v 0.863600 0.022173 -0.009184
v 0.863600 0.023539 -0.004682
v 0.863600 0.000000 0.000000
f 1 3 2
f 1 4 3
f 1 5 4
f 1 6 5
f 1 7 6
f 1 8 7
f 1 9 8
f 1 10 9
f 1 11 10
f 1 12 11
f 1 13 12
f 1 14 13
f 1 15 14
f 1 16 15
f 1 17 16
f 1 18 17
f 1 19 18
f 1 20 19
f 1 21 20
f 1 22 21
f 1 23 22
f 1 24 23
f 1 25 24
f 1 26 25
f 1 27 26
f 1 28 27
f 1 29 28
f 1 30 29
f 1 31 30
f 1 32 31
f 1 33 32
f 1 2 33
f 2 3 35
f 2 35 34
f 3 4 36
f 3 36 35
f 4 5 37
f 4 37 36
f 5 6 38
f 5 38 37
f 6 7 39
f 6 39 38
f 7 8 40
f 7 40 39
f 8 9 41
f 8 41 40
f 9 10 42
f 9 42 41
f 10 11 43
f 10 43 42
f 11 12 44
f 11 44 43
f 12 13 45
f 12 45 44
f 13 14 46
f 13 46 45
f 14 15 47
f 14 47 46
f 15 16 48
f 15 48 47
f 16 17 49
f 16 49 48
f 17 18 50
f 17 50 49
f 18 19 51
f 18 51 50
f 19 20 52
f 19 52 51
f 20 21 53
f 20 53 52
f 21 22 54
f 21 54 53
f 22 23 55
f 22 55 54
f 23 24 56
f 23 56 55
f 24 25 57
f 24 57 56
f 25 26 58
f 25 58 57
f 26 27 59
f 26 59 58
f 27 28 60
f 27 60 59
f 28 29 61
f 28 61 60
f 29 30 62
f 29 62 61
f 30 31 63
f 30 63 62
f 31 32 64
f 31 64 63
f 32 33 65
f 32 65 64
f 33 2 34
f 33 34 65
f 34 35 67
f 34 67 66
f 35 36 68
f 35 68 67
f 36 37 69
f 36 69 68
f 37 38 70
f 37 70 69
f 38 39 71
f 38 71 70
f 39 40 72
f 39 72 71
f 40 41 73
f 40 73 72
f 41 42 74
f 41 74 73
f 42 43 75
f 42 75 74
f 43 44 76
f 43 76 75
f 44 45 77
f 44 77 76
f 45 46 78
f 45 78 77
f 46 47 79
f 46 79 78
f 47 48 80
f 47 80 79
f 48 49 81
f 48 81 80
f 49 50 82
f 49 82 81
f 50 51 83
f 50 83 82
f 51 52 84
f 51 84 83
f 52 53 85
f 52 85 84
f 53 54 86
f 53 86 85
f 54 55 87
f 54 87 86
f 55 56 88
f 55 88 87
f 56 57 89
f 56 89 88
f 57 58 90
f 57 90 89
f 58 59 91
f 58 91 90
f 59 60 92
f 59 92 91
f 60 61 93
f 60 93 92
f 61 62 94
f 61 94 93
f 62 63 95
f 62 95 94
f 63 64 96
f 63 96 95
f 64 65 97
f 64 97 96
f 65 34 66
f 65 66 97
f 66 67 99
f 66 99 98
f 67 68 100
f 67 100 99
f 68 69 101
f 68 101 100
f 69 70 102
f 69 102 101
f 70 71 103
f 70 103 102
f 71 72 104
f 71 104 103
f 72 73 105
f 72 105 104
f 73 74 106
f 73 106 105
f 74 75 107
f 74 107 106
f 75 76 108
f 75 108 107
f 76 77 109
f 76 109 108
f 77 78 110
f 77 110 109
f 78 79 111
f 78 111 110
f 79 80 112
f 79 112 111
f 80 81 113
f 80 113 112
f 81 82 114
f 81 114 113
f 82 83 115
f 82 115 114
f 83 84 116
f 83 116 115
f 84 85 117
f 84 117 116
f 85 86 118
f 85 118 117
f 86 87 119
f 86 119 118
f 87 88 120
f 87 120 119
f 88 89 121
f 88 121 120
f 89 90 122
f 89 122 121
f 90 91 123
f 90 123 122
f 91 92 124
f 91 124 123
f 92 93 125
f 92 125 124
f 93 94 126
f 93 126 125
f 94 95 127
f 94 127 126
f 95 96 128
f 95 128 127
f 96 97 129
f 96 129 128
f 97 66 98
f 97 98 129
f 98 99 131
f 98 131 130
f 99 100 132
f 99 132 131
f 100 101 133
f 100 133 132
f 101 102 134
f 101 134 133
f 102 103 135
f 102 135 134
f 103 104 136
f 103 136 135
f 104 105 137
f 104 137 136
f 105 106 138
f 105 138 137
f 106 107 139
f 106 139 138
f 107 108 140
f 107 140 139
f 108 109 141
f 108 141 140
f 109 110 142
f 109 142 141
f 110 111 143
f 110 143 142
f 111 112 144
f 111 144 143
f 112 113 145
f 112 145 144
f 113 114 146
f 113 146 145
f 114 115 147
f 114 147 146
f 115 116 148
f 115 148 147
f 116 117 149
f 116 149 148
f 117 118 150
f 117 150 149
f 118 119 151
f 118 151 150
f 119 120 152
f 119 152 151
f 120 121 153
f 120 153 152
f 121 122 154
f 121 154 153
f 122 123 155
f 122 155 154
f 123 124 156
f 123 156 155
f 124 125 157
f 124 157 156
f 125 126 158
f 125 158 157
f 126 127 159
f 126 159 158
f 127 128 160
f 127 160 159
f 128 129 161
f 128 161 160
f 129 98 130
f 129 130 161
f 130 131 163
f 130 163 162
f 131 132 164
f 131 164 163
f 132 133 165
f 132 165 164
f 133 134 166
f 133 166 165
f 134 135 167
f 134 167 166
f 135 136 168
f 135 168 167
f 136 137 169
f 136 169 168
f 137 138 170
f 137 170 169
f 138 139 171
f 138 171 170
f 139 140 172
f 139 172 171
f 140 141 173
f 140 173 172
f 141 142 174
f 141 174 173
f 142 143 175
f 142 175 174
f 143 144 176
f 143 176 175
f 144 145 177
f 144 177 176
f 145 146 178
f 145 178 177
f 146 147 179
f 146 179 178
f 147 148 180
f 147 180 179
f 148 149 181
f 148 181 180
f 149 150 182
f 149 182 181
f 150 151 183
f 150 183 182
f 151 152 184
f 151 184 183
f 152 153 185
f 152 185 184
f 153 154 186
f 153 186 185
f 154 155 187
f 154 187 186
f 155 156 188
f 155 188 187
f 156 157 189
f 156 189 188
f 157 158 190
f 157 190 189
f 158 159 191
f 158 191 190
f 159 160 192
f 159 192 191
f 160 161 193
f 160 193 192
f 161 130 162
f 161 162 193
f 162 163 195
f 162 195 194
f 163 164 196
f 163 196 195
f 164 165 197
f 164 197 196
f 165 166 198
f 165 198 197
f 166 167 199
f 166 199 198
f 167 168 200
f 167 200 199
f 168 169 201
f 168 201 200
f 169 170 202
f 169 202 201
f 170 171 203
f 170 203 202
f 171 172 204
f 171 204 203
f 172 173 205
f 172 205 204
f 173 174 206
f 173 206 205
f 174 175 207
f 174 207 206
f 175 176 208
f 175 208 207
f 176 177 209
f 176 209 208
f 177 178 210
f 177 210 209
f 178 179 211
f 178 211 210
f 179 180 212
f 179 212 211
f 180 181 213
f 180 213 212
f 181 182 214
f 181 214 213
f 182 183 215
f 182 215 214
f 183 184 216
f 183 216 215
f 184 185 217
f 184 217 216
f 185 186 218
f 185 218 217
f 186 187 219
f 186 219 218
f 187 188 220
f 187 220 219
f 188 189 221
f 188 221 220
f 189 190 222
f 189 222 221
f 190 191 223
f 190 223 222
f 191 192 224
f 191 224 223
f 192 193 225
f 192 225 224
f 193 162 194
f 193 194 225
f 194 195 227
f 194 227 226
f 195 196 228
f 195 228 227
f 196 197 229
f 196 229 228
f 197 198 230
f 197 230 229
f 198 199 231
f 198 231 230
f 199 200 232
f 199 232 231
f 200 201 233
f 200 233 232
f 201 202 234
f 201 234 233
f 202 203 235
f 202 235 234
f 203 204 236
f 203 236 235
f 204 205 237
f 204 237 236
f 205 206 238
f 205 238 237
f 206 207 239
f 206 239 238
f 207 208 240
f 207 240 239
f 208 209 241
f 208 241 240
f 209 210 242
f 209 242 241
f 210 211 243
f 210 243 242
f 211 212 244
f 211 244 243
f 212 213 245
f 212 245 244
f 213 214 246
f 213 246 245
f 214 215 247
f 214 247 246
f 215 216 248
f 215 248 247
f 216 217 249
f 216 249 248
f 217 218 250
f 217 250 249
f 218 219 251
f 218 251 250
f 219 220 252
f 219 252 251
f 220 221 253
f 220 253 252
f 221 222 254
f 221 254 253
f 222 223 255
f 222 255 254
f 223 224 256
f 223 256 255
f 224 225 257
f 224 257 256
f 225 194 226
f 225 226 257
f 226 227 259
f 226 259 258
f 227 228 260
f 227 260 259
f 228 229 261
f 228 261 260
f 229 230 262
f 229 262 261
f 230 231 263
f 230 263 262
f 231 232 264
f 231 264 263
f 232 233 265
f 232 265 264
f 233 234 266
f 233 266 265
f 234 235 267
f 234 267 266
f 235 236 268
f 235 268 267
f 236 237 269
f 236 269 268
f 237 238 270
f 237 270 269
f 238 239 271
f 238 271 270
f 239 240 272
f 239 272 271
f 240 241 273
f 240 273 272
f 241 242 274
f 241 274 273
f 242 243 275
f 242 275 274
f 243 244 276
f 243 276 275
f 244 245 277
f 244 277 276
f 245 246 278
f 245 278 277
f 246 247 279
f 246 279 278
f 247 248 280
f 247 280 279
f 248 249 281
f 248 281 280
f 249 250 282
f 249 282 281
f 250 251 283
f 250 283 282
f 251 252 284
f 251 284 283
f 252 253 285
f 252 285 284
f 253 254 286
f 253 286 285
f 254 255 287
f 254 287 286
f 255 256 288
f 255 288 287
f 256 257 289
f 256 289 288
f 257 226 258
f 257 258 289
f 258 259 291
f 258 291 290
f 259 260 292
f 259 292 291
f 260 261 293
f 260 293 292
f 261 262 294
f 261 294 293
f 262 263 295
f 262 295 294
f 263 264 296
f 263 296 295
f 264 265 297
f 264 297 296
f 265 266 298
f 265 298 297
f 266 267 299
f 266 299 298
f 267 268 300
f 267 300 299
f 268 269 301
f 268 301 300
f 269 270 302
f 269 302 301
f 270 271 303
f 270 303 302
f 271 272 304
f 271 304 303
f 272 273 305
f 272 305 304
f 273 274 306
f 273 306 305
f 274 275 307
f 274 307 306
f 275 276 308
f 275 308 307
f 276 277 309
f 276 309 308
f 277 278 310
f 277 310 309
f 278 279 311
f 278 311 310
f 279 280 312
f 279 312 311
f 280 281 313
f 280 313 312
f 281 282 314
f 281 314 313
f 282 283 315
f 282 315 314
f 283 284 316
f 283 316 315
f 284 285 317
f 284 317 316
f 285 286 318
f 285 318 317
f 286 287 319
f 286 319 318
f 287 288 320
f 287 320 319
f 288 289 321
f 288 321 320
f 289 258 290
f 289 290 321
f 322 290 291
f 322 291 292
f 322 292 293
f 322 293 294
f 322 294 295
f 322 295 296
f 322 296 297
f 322 297 298
f 322 298 299
f 322 299 300
f 322 300 301
f 322 301 302
f 322 302 303
f 322 303 304
f 322 304 305
f 322 305 306
f 322 306 307
f 322 307 308
f 322 308 309
f 322 309 310
f 322 310 311
f 322 311 312
f 322 312 313
f 322 313 314
f 322 314 315
f 322 315 316
f 322 316 317
f 322 317 318
f 322 318 319
f 322 319 320
f 322 320 321
f 322 321 290
